<?xml version="1.0" encoding="iso-8859-1"?>
<!-- Generator: Adobe Illustrator 22.0.1, SVG Export Plug-In . SVG Version: 6.00 Build 0)  -->
<svg version="1.1" id="Layer_1_1_" xmlns="http://www.w3.org/2000/svg" xmlns:xlink="http://www.w3.org/1999/xlink" x="0px" y="0px"
	 viewBox="0 0 64 64" style="enable-background:new 0 0 64 64;" xml:space="preserve">
<g id="Guide">
	<g>
	</g>
	<g>
	</g>
	<g>
	</g>
	<g>
	</g>
	<g>
	</g>
	<g>
	</g>
	<g>
	</g>
	<g>
	</g>
	<g>
	</g>
	<g>
	</g>
	<g>
	</g>
	<g>
	</g>
	<g>
	</g>
	<g>
	</g>
	<g>
	</g>
	<g>
	</g>
	<g>
	</g>
	<g>
	</g>
	<g>
	</g>
	<g>
	</g>
	<g>
	</g>
	<g>
	</g>
	<g>
	</g>
	<g>
	</g>
	<g>
	</g>
	<g>
	</g>
	<g>
	</g>
	<g>
	</g>
	<g>
	</g>
	<g>
	</g>
	<g>
	</g>
	<g>
	</g>
	<g>
	</g>
	<g>
	</g>
	<g>
	</g>
	<g>
	</g>
</g>
<path d="M61,38h-3.519l-6.4-8H53c0.553,0,1-0.448,1-1v-8c0-0.552-0.447-1-1-1h-3.727l-13.58-8H36c0.553,0,1-0.448,1-1V3
	c0-0.552-0.447-1-1-1h-8c-0.553,0-1,0.448-1,1v8c0,0.552,0.447,1,1,1h0.27l-13.742,8H11c-0.553,0-1,0.448-1,1v8c0,0.552,0.447,1,1,1
	h1.919l-6.4,8H3c-0.553,0-1,0.448-1,1v8c0,0.552,0.447,1,1,1h3v4H3c-0.553,0-1,0.448-1,1v8c0,0.552,0.447,1,1,1h8
	c0.553,0,1-0.448,1-1v-8c0-0.552-0.447-1-1-1H8v-4h3c0.553,0,1-0.448,1-1v-8c0-0.552-0.447-1-1-1H9.081L15,30.601L20.919,38H19
	c-0.553,0-1,0.448-1,1v8c0,0.552,0.447,1,1,1h3v4h-3c-0.553,0-1,0.448-1,1v8c0,0.552,0.447,1,1,1h8c0.553,0,1-0.448,1-1v-8
	c0-0.552-0.447-1-1-1h-3v-4h3c0.553,0,1-0.448,1-1v-8c0-0.552-0.447-1-1-1h-3.519l-6.4-8H19c0.553,0,1-0.448,1-1v-8
	c0-0.552-0.447-1-1-1h-0.498l13.495-7.856L45.332,20H45c-0.553,0-1,0.448-1,1v8c0,0.552,0.447,1,1,1h1.919l-6.4,8H37
	c-0.553,0-1,0.448-1,1v8c0,0.552,0.447,1,1,1h3v4h-3c-0.553,0-1,0.448-1,1v8c0,0.552,0.447,1,1,1h8c0.553,0,1-0.448,1-1v-8
	c0-0.552-0.447-1-1-1h-3v-4h3c0.553,0,1-0.448,1-1v-8c0-0.552-0.447-1-1-1h-1.919L49,30.601L54.919,38H53c-0.553,0-1,0.448-1,1v8
	c0,0.552,0.447,1,1,1h3v4h-3c-0.553,0-1,0.448-1,1v8c0,0.552,0.447,1,1,1h8c0.553,0,1-0.448,1-1v-8c0-0.552-0.447-1-1-1h-3v-4h3
	c0.553,0,1-0.448,1-1v-8C62,38.448,61.553,38,61,38z M29,4h6v6h-2.889c-0.074-0.008-0.148-0.008-0.222,0H29V4z M10,60H4v-6h6V60z
	 M10,46H4v-6h6V46z M26,60h-6v-6h6V60z M26,46h-6v-6h6V46z M18,28h-6v-6h6V28z M46,22h6v6h-6V22z M44,60h-6v-6h6V60z M44,46h-6v-6h6
	V46z M60,60h-6v-6h6V60z M60,46h-6v-6h6V46z"/>
</svg>
